<?xml version="1.0" standalone="no"?>
<!DOCTYPE svg PUBLIC "-//W3C//DTD SVG 20010904//EN"
 "http://www.w3.org/TR/2001/REC-SVG-20010904/DTD/svg10.dtd">
<svg version="1.0" xmlns="http://www.w3.org/2000/svg"
 width="789.000000pt" height="789.000000pt" viewBox="0 0 789.000000 789.000000"
 preserveAspectRatio="xMidYMid meet">
<metadata>
Created by potrace 1.14, written by Peter Selinger 2001-2017
</metadata>
<g transform="translate(0.000000,789.000000) scale(0.100000,-0.100000)"
fill="#000000" stroke="none">
<path d="M587 6358 c-11 -17 -13 -57 -11 -158 6 -219 8 -260 19 -261 174 -16
393 -14 412 4 15 15 30 85 27 126 -2 25 -6 91 -9 146 -3 55 -7 115 -10 133
l-6 32 -204 0 c-201 0 -205 0 -218 -22z"/>
<path d="M1268 6363 c-12 -15 -14 -48 -11 -178 5 -243 5 -245 17 -246 208 -18
397 -14 416 8 21 24 31 102 21 158 -6 32 -11 100 -11 151 0 51 -3 99 -6 108
-5 14 -33 16 -209 16 -180 0 -204 -2 -217 -17z"/>
<path d="M4571 5662 c-35 -6 -190 -66 -233 -90 -110 -62 -208 -146 -208 -178
0 -7 -4 -14 -8 -16 -20 -7 -82 -102 -92 -139 -10 -35 -22 -208 -19 -264 2 -44
9 -587 8 -685 -2 -432 -2 -1017 1 -1175 1 -104 2 -284 1 -400 -1 -220 2 -255
24 -308 39 -93 180 -244 270 -289 98 -50 214 -86 285 -88 130 -4 198 -3 231 3
19 4 52 9 74 12 22 3 56 8 75 11 163 23 246 89 348 277 17 31 29 57 27 57 -2
0 3 19 11 43 26 71 31 334 24 1167 l-3 315 -30 75 c-17 41 -37 81 -44 88 -7 7
-13 17 -13 22 0 22 -66 111 -99 133 -66 44 -189 98 -253 111 -35 7 -94 11
-133 9 -67 -3 -205 -39 -205 -52 0 -4 -14 -15 -31 -25 -16 -10 -35 -29 -40
-44 -7 -18 -13 -22 -21 -14 -7 7 -8 70 -3 209 9 238 9 393 2 572 -8 180 4 203
103 216 30 4 64 9 75 11 85 12 99 12 124 -1 59 -30 62 -42 61 -230 -1 -71 -1
-173 -1 -225 -1 -90 0 -95 26 -117 15 -14 31 -20 38 -16 7 5 89 11 182 15 94
4 184 9 200 11 17 2 35 5 41 6 23 2 34 55 29 131 -4 41 -6 165 -6 274 1 176
-2 204 -19 243 -39 87 -132 199 -205 245 -56 35 -163 71 -210 70 -22 0 -61 6
-86 14 -45 14 -247 25 -298 16z m203 -1861 c67 -27 93 -83 102 -222 5 -78 8
-894 3 -1000 -2 -46 -134 -115 -187 -98 -15 4 -38 11 -52 13 -14 3 -44 23 -67
45 l-43 39 -1 79 c0 85 -3 131 -14 238 -4 39 -7 75 -6 80 3 54 12 290 11 325
0 25 -3 133 -5 241 -6 222 -12 204 82 249 60 29 122 33 177 11z"/>
<path d="M1051 5644 c-36 -7 -81 -15 -100 -18 -40 -5 -139 -49 -190 -85 -54
-39 -179 -175 -215 -233 -46 -77 -57 -170 -43 -377 13 -182 11 -1643 -2 -1689
-8 -28 -10 -89 -6 -180 3 -75 8 -211 11 -302 10 -289 11 -304 27 -348 25 -65
79 -165 102 -185 33 -30 164 -115 188 -123 12 -3 30 -13 40 -22 9 -8 17 -12
17 -9 0 3 16 -1 35 -9 107 -44 312 -60 455 -35 80 15 233 65 275 91 64 39 219
220 189 220 -4 0 -1 6 5 14 7 8 14 27 17 43 2 15 6 42 9 58 16 103 19 164 17
375 -1 129 -6 257 -10 284 -10 52 -8 549 2 626 3 25 6 79 5 120 -2 188 -1 270
1 335 2 39 -2 111 -9 160 -6 50 -13 216 -15 370 -2 154 -4 285 -5 290 0 6 0
24 1 40 2 50 -13 157 -29 205 -9 25 -17 50 -18 55 -6 29 -23 51 -83 111 -35
36 -79 72 -96 81 -17 9 -48 29 -68 45 -31 24 -145 72 -198 83 -8 2 -15 4 -15
5 0 17 -222 20 -294 4z m191 -455 c32 -2 55 -10 78 -29 l33 -27 3 -139 c2 -76
6 -204 10 -284 3 -80 6 -163 6 -185 -1 -142 -6 -243 -14 -272 -14 -52 -16
-134 -3 -184 7 -25 13 -84 14 -132 2 -90 6 -120 16 -137 3 -6 5 -70 4 -143 -1
-72 -1 -150 -1 -172 3 -289 2 -366 -3 -376 -4 -6 -9 -129 -11 -273 -5 -294 -4
-283 -26 -315 -16 -23 -32 -27 -128 -33 -56 -4 -186 38 -211 69 -7 8 -11 37
-10 66 8 155 3 737 -7 768 -11 36 -11 52 -12 759 0 256 3 476 6 490 15 57 18
298 5 345 -7 29 6 116 23 144 15 24 82 57 121 60 21 1 41 4 44 6 2 3 7 3 11 0
3 -2 27 -5 52 -6z"/>
<path d="M7019 5606 c-2 -2 -23 -6 -47 -9 -23 -2 -46 -7 -49 -11 -4 -3 -15
-38 -25 -77 -30 -120 -58 -184 -104 -240 -37 -45 -57 -59 -121 -86 -43 -17
-94 -32 -113 -32 -48 -1 -106 -19 -125 -38 -13 -12 -15 -25 -9 -52 6 -31 10
-126 13 -308 1 -62 28 -73 173 -73 117 1 135 2 180 14 14 4 35 3 46 -3 17 -9
20 -21 20 -96 1 -47 4 -89 7 -95 16 -25 18 -126 25 -1090 0 -16 -7 -72 -10
-80 -1 -3 -1 -9 0 -15 1 -5 3 -219 5 -475 1 -287 7 -477 13 -497 6 -18 8 -45
6 -60 -16 -112 -16 -134 0 -177 l17 -45 222 4 c122 3 230 5 239 5 33 2 41 37
34 149 -4 58 -9 122 -12 141 -3 19 -4 199 -3 400 1 201 1 383 1 405 0 22 -3
241 -6 486 -3 246 -8 480 -11 520 -3 41 -7 164 -10 274 -3 110 -9 225 -12 255
-4 30 -6 64 -5 75 0 11 4 58 7 105 3 47 7 185 9 306 2 122 6 227 10 233 9 15
14 147 6 160 -10 17 -82 27 -175 24 -141 -4 -175 -4 -184 1 -5 3 -10 4 -12 2z"/>
<path d="M2518 4032 c-10 -2 -18 -9 -19 -15 -1 -19 -1 -249 0 -277 1 -14 11
-38 24 -54 23 -28 24 -28 63 -15 28 9 117 14 324 15 157 2 291 3 297 3 17 1
41 52 36 76 -17 78 -21 133 -11 171 14 50 7 71 -29 85 -30 11 -283 16 -375 7
-35 -4 -58 -2 -58 4 0 5 -8 7 -18 3 -34 -10 -117 -13 -127 -5 -11 9 -29 8 -59
-5 -10 -4 -21 -4 -25 1 -3 6 -14 8 -23 6z"/>
</g>
</svg>
